<?xml version="1.0" encoding="iso-8859-1"?>
<!-- Generator: Adobe Illustrator 19.0.0, SVG Export Plug-In . SVG Version: 6.00 Build 0)  -->
<svg version="1.1" id="Capa_1" xmlns="http://www.w3.org/2000/svg" xmlns:xlink="http://www.w3.org/1999/xlink" x="0px" y="0px"
	 viewBox="0 0 509.287 509.287" style="enable-background:new 0 0 509.287 509.287;" xml:space="preserve">
<circle style="fill:#6EB1E1;" cx="254.644" cy="254.644" r="254.644"/>
<path style="fill:#646B79;" d="M445.542,99.687H63.746c-3.73,0-6.781,3.052-6.781,6.781v252.609c0,3.73,3.052,6.781,6.781,6.781
	h381.457c3.73,0,6.781-3.052,6.781-6.781V106.469C452.323,102.739,449.271,99.687,445.542,99.687z"/>
<rect x="79.343" y="122.066" style="fill:#F1F3F7;" width="350.262" height="222.093"/>
<path style="fill:#414753;" d="M22.379,366.199c0,24.074,19.327,43.401,43.401,43.401h377.727c24.074,0,43.401-19.327,43.401-43.401
	H22.379z"/>
<rect x="97.314" y="137.664" style="fill:#6EB1E1;" width="314.321" height="61.033"/>
<rect x="97.314" y="210.564" style="fill:#29B471;" width="93.923" height="117.658"/>
<rect x="207.852" y="210.564" style="fill:#F0582F;" width="93.923" height="117.658"/>
<rect x="318.05" y="210.564" style="fill:#FBD303;" width="93.923" height="117.658"/>
<g>
</g>
<g>
</g>
<g>
</g>
<g>
</g>
<g>
</g>
<g>
</g>
<g>
</g>
<g>
</g>
<g>
</g>
<g>
</g>
<g>
</g>
<g>
</g>
<g>
</g>
<g>
</g>
<g>
</g>
</svg>
